<?xml version="1.0" encoding="UTF-8"?>
<!DOCTYPE svg PUBLIC "-//W3C//DTD SVG 1.1//EN" "http://www.w3.org/Graphics/SVG/1.1/DTD/svg11.dtd">
<!-- Creator: CorelDRAW -->
<svg xmlns="http://www.w3.org/2000/svg" xml:space="preserve" width="200mm" height="180mm" version="1.1" style="shape-rendering:geometricPrecision; text-rendering:geometricPrecision; image-rendering:optimizeQuality; fill-rule:evenodd; clip-rule:evenodd"
viewBox="0 0 20000 18000"
 xmlns:xlink="http://www.w3.org/1999/xlink"
 xmlns:xodm="http://www.corel.com/coreldraw/odm/2003">
 <defs>
  <style type="text/css">
   <![CDATA[
    .fil0 {fill:black}
   ]]>
  </style>
 </defs>
 <g id="Camada_x0020_1">
  <metadata id="CorelCorpID_0Corel-Layer"/>
  <g id="_2050187728944">
   <path class="fil0" d="M8797.72 13777.99c-1577.62,0 -2338.82,-2195.02 -2541.38,-3386.63 -312.65,-1839.33 -53.84,-4342.64 1467.09,-5673.89 762.67,-667.66 1643.22,-570.11 2411.76,-56.26 489.89,327.59 919.9,846.63 1168.05,1380.71 67.54,145.39 128.23,428.06 300.16,427.92 403.77,-0.28 155.49,-633.93 107.81,-935.88l-224.92 -1426.5c-31.19,-185.66 -19.52,-426.73 -173.4,-538.33 -76.64,20.48 -97.4,46.09 -165.78,100.66 -61.46,49.03 -72.71,77.36 -121.51,118.18 -191.91,160.35 -2130.71,-60.81 -2832.53,94.76 -1599.88,430.32 -2726.76,1771.02 -3253.7,3295.38 -742.5,2148.89 -701.05,4356.25 815.52,6119.99 822.51,956.69 2386.01,1271.13 3597.78,1066.12 544.74,-92.18 1752.23,-789.32 1974.77,-1279.9 283.65,13.2 589.83,72.3 890.43,72.3 0,-141.94 22.08,-300.73 -29.75,-436.65 -163.29,-47.85 -375.73,-56.28 -530.57,-112.31 -162.13,-58.6 -252.02,-141.08 -301.7,-236.71 -36.74,-612.77 -103.56,-1558.13 156.16,-1799.26 324.23,-300.51 1408.07,-120.98 1758.02,57.02 172.74,-17.62 44.51,1515.02 46.08,1843.01 2.02,418.87 10.63,844.06 -359.65,1063.73 -153.97,91.25 -365.19,105 -527.54,183.14 -51.53,221.71 -29.64,480.74 -29.64,712.27 299.94,0 605.42,-97.15 888.23,-118.19 511.1,-38.16 1026.26,-23.49 1539.18,-1.54 189.34,8.06 413.99,90.06 679.6,90.06 56.64,-243.81 -1.81,-325.24 1.68,-595.21 4.47,-342.42 -210.87,-171.98 -579.34,-368.66 -250.52,-133.75 -310.08,-359.17 -310.08,-668.36l0 -4963.97c-136.17,-100.22 -1108.99,-1559.92 -1290.49,-1819.21l-11.46 3845.16 -1985.32 -71.96c-22.25,-4.81 -48.05,-9.3 -76.8,-13.45 -26.54,-1063.07 -57.58,-1801.27 -15.49,-2213.52 41.7,-408.28 7.38,-367.43 674.94,-492.17 90.3,-16.9 130.52,-23.48 214.7,-50.74l0 -454.8c-138.05,0 -201.19,16.3 -300.49,34.62 -749.71,138.11 -1687.18,116.53 -2416.05,-12.26 -52.81,-9.32 -157.38,-23.09 -188.25,-12.68 -65.26,22.02 -43.74,58.61 -42.76,116.82 3.3,193.67 -124.89,302.67 110.9,352.21 208.64,43.9 524.67,86.73 626.64,217.36 46.48,59.46 67.23,182.27 67.23,268.18l0 2239.08c-715.06,54.46 -1451.68,204.28 -1572.82,508.82 -35.86,90.27 173.47,982.87 207.1,1127.71 111.94,-26.16 114.6,-341.09 184.23,-416.84 327.22,-355.82 580.05,-206.42 1058.56,-206.42 217.99,360.43 122.93,948.78 122.93,1386.87 0,189.62 -59.78,327.78 -311.88,409.82 -370.6,120.57 -587.19,16 -582.69,226 3.59,165.46 -55.27,215.38 1.68,364.84 267.16,0 493.1,-50.22 683.46,-55.21 56.65,-1.48 113.32,-2.9 170.01,-4.24 -31.51,161.26 -92.06,308.79 -208.03,425.68 -96.83,97.56 -231.14,152.9 -363.51,199.27 -187.51,65.65 -369.58,74.06 -577.17,74.06zm5182.33 -7799.9c465.24,-826.92 479,-1275.63 1328.38,-1568.68 243.7,-83.99 116.69,-738.09 67.74,-765.16 -30.69,-16.9 -134.73,5.55 -187.16,20.69 -559.55,162.24 -1168.47,232.52 -1745.37,132.92 -92.5,-15.99 -245.34,-20.27 -338.13,-46.65 -111.51,-31.62 -210.65,-33.59 -318.68,-66.27 -98.72,-29.82 -161.51,-56.47 -298.76,-56.47l0 741.95c83.7,44.39 123.69,55.2 213.46,82.69 481.9,147.8 569.19,284.68 594.3,547.47l684.22 977.51z"/>
  </g>
 </g>
</svg>
